<svg xmlns="http://www.w3.org/2000/svg" height="24px" viewBox="0 -960 960 960" width="24px" fill="#e3e3e3"><path d="M762-96 645-212l-88 88-40-40q-23-23-23-57t23-57l169-169q23-23 57-23t57 23l40 40-88 88 116 117q12 12 12 40t-12 40l-50 50q-12 12-40 12t-40-12Zm118-640L426-270l5 4q23 23 23 57t-23 57l-40 40-88-88L198-96q-12 12-40 12t-40-12l-50-50q-12-12-12-40t12-40l116-117-88-88 40-40q23-23 57-23t57 23l4 5 454-454h160v160ZM334-583l24-23 23-24-23 24-24 23Zm-56 57L80-724v-160h160l198 198-57 56-174-174h-47v47l174 174-56 57Zm92 199 430-430v-47h-47L323-374l47 47Zm0 0-24-23-23-24 23 24 24 23Z"/></svg>